<mxfile host="app.diagrams.net" agent="Mozilla/5.0 (Windows NT 10.0; Win64; x64) AppleWebKit/537.36 (KHTML, like Gecko) Chrome/135.0.0.0 Safari/537.36" version="26.2.12">
  <diagram name="Trang-1" id="uE7v1yjlajYzolNaUygS">
    <mxGraphModel dx="2318" dy="820" grid="1" gridSize="10" guides="1" tooltips="1" connect="1" arrows="1" fold="1" page="1" pageScale="1" pageWidth="827" pageHeight="1169" math="0" shadow="0">
      <root>
        <mxCell id="0" />
        <mxCell id="1" parent="0" />
        <mxCell id="FYOFQFYo751wViRwcOWy-70" value="" style="group" parent="1" vertex="1" connectable="0">
          <mxGeometry x="-740" y="110" width="1260" height="810" as="geometry" />
        </mxCell>
        <mxCell id="FYOFQFYo751wViRwcOWy-2" value="Server (Backend)" style="rounded=0;whiteSpace=wrap;html=1;align=center;verticalAlign=top;fontSize=22;" parent="FYOFQFYo751wViRwcOWy-70" vertex="1">
          <mxGeometry x="894" width="366" height="810" as="geometry" />
        </mxCell>
        <mxCell id="FYOFQFYo751wViRwcOWy-6" value="&lt;div&gt;&lt;span style=&quot;background-color: transparent; color: light-dark(rgb(0, 0, 0), rgb(255, 255, 255));&quot;&gt;Gửi JWT về Client&lt;/span&gt;&lt;/div&gt;" style="ellipse;whiteSpace=wrap;html=1;" parent="FYOFQFYo751wViRwcOWy-70" vertex="1">
          <mxGeometry x="997" y="160" width="160" height="50" as="geometry" />
        </mxCell>
        <mxCell id="FYOFQFYo751wViRwcOWy-27" value="UI/UX(Frontend)" style="rounded=0;whiteSpace=wrap;html=1;verticalAlign=top;fontSize=22;" parent="FYOFQFYo751wViRwcOWy-70" vertex="1">
          <mxGeometry x="350" width="510" height="810" as="geometry" />
        </mxCell>
        <mxCell id="FYOFQFYo751wViRwcOWy-16" style="edgeStyle=none;rounded=0;orthogonalLoop=1;jettySize=auto;html=1;entryX=0;entryY=0.5;entryDx=0;entryDy=0;endArrow=none;startFill=0;endFill=1;" parent="FYOFQFYo751wViRwcOWy-70" source="FYOFQFYo751wViRwcOWy-1" target="FYOFQFYo751wViRwcOWy-15" edge="1">
          <mxGeometry relative="1" as="geometry" />
        </mxCell>
        <mxCell id="FYOFQFYo751wViRwcOWy-33" style="edgeStyle=none;rounded=0;orthogonalLoop=1;jettySize=auto;html=1;endArrow=block;endFill=0;" parent="FYOFQFYo751wViRwcOWy-70" source="FYOFQFYo751wViRwcOWy-1" target="FYOFQFYo751wViRwcOWy-29" edge="1">
          <mxGeometry relative="1" as="geometry" />
        </mxCell>
        <mxCell id="FYOFQFYo751wViRwcOWy-1" value="Staff" style="shape=umlActor;verticalLabelPosition=bottom;verticalAlign=top;html=1;outlineConnect=0;" parent="FYOFQFYo751wViRwcOWy-70" vertex="1">
          <mxGeometry x="180" y="172.5" width="30" height="60" as="geometry" />
        </mxCell>
        <mxCell id="FYOFQFYo751wViRwcOWy-3" value="1.1 Nhập Username/Password" style="ellipse;whiteSpace=wrap;html=1;" parent="FYOFQFYo751wViRwcOWy-70" vertex="1">
          <mxGeometry x="650" y="80" width="180" height="50" as="geometry" />
        </mxCell>
        <mxCell id="FYOFQFYo751wViRwcOWy-28" style="edgeStyle=none;rounded=0;orthogonalLoop=1;jettySize=auto;html=1;exitX=1;exitY=0.5;exitDx=0;exitDy=0;entryX=0;entryY=0.5;entryDx=0;entryDy=0;dashed=1;" parent="FYOFQFYo751wViRwcOWy-70" source="FYOFQFYo751wViRwcOWy-4" target="FYOFQFYo751wViRwcOWy-5" edge="1">
          <mxGeometry relative="1" as="geometry" />
        </mxCell>
        <mxCell id="FYOFQFYo751wViRwcOWy-46" value="&amp;lt;&amp;lt;include&amp;gt;&amp;gt;" style="edgeLabel;html=1;align=center;verticalAlign=middle;resizable=0;points=[];" parent="FYOFQFYo751wViRwcOWy-28" vertex="1" connectable="0">
          <mxGeometry x="-0.0354" y="2" relative="1" as="geometry">
            <mxPoint as="offset" />
          </mxGeometry>
        </mxCell>
        <mxCell id="FYOFQFYo751wViRwcOWy-4" value="1.2 Bấm nút đăng nhập" style="ellipse;whiteSpace=wrap;html=1;" parent="FYOFQFYo751wViRwcOWy-70" vertex="1">
          <mxGeometry x="650" y="150" width="180" height="50" as="geometry" />
        </mxCell>
        <mxCell id="FYOFQFYo751wViRwcOWy-36" style="edgeStyle=none;rounded=0;orthogonalLoop=1;jettySize=auto;html=1;exitX=0.5;exitY=1;exitDx=0;exitDy=0;entryX=0.5;entryY=0;entryDx=0;entryDy=0;endArrow=classic;startFill=0;dashed=1;endFill=1;" parent="FYOFQFYo751wViRwcOWy-70" source="FYOFQFYo751wViRwcOWy-5" target="FYOFQFYo751wViRwcOWy-6" edge="1">
          <mxGeometry relative="1" as="geometry" />
        </mxCell>
        <mxCell id="FYOFQFYo751wViRwcOWy-47" value="&amp;lt;&amp;lt;include&amp;gt;&amp;gt;" style="edgeLabel;html=1;align=center;verticalAlign=middle;resizable=0;points=[];" parent="FYOFQFYo751wViRwcOWy-36" vertex="1" connectable="0">
          <mxGeometry x="-0.0111" y="-2" relative="1" as="geometry">
            <mxPoint as="offset" />
          </mxGeometry>
        </mxCell>
        <mxCell id="FYOFQFYo751wViRwcOWy-5" value="Xác thực thông tin &amp;amp; tạo JWT" style="ellipse;whiteSpace=wrap;html=1;" parent="FYOFQFYo751wViRwcOWy-70" vertex="1">
          <mxGeometry x="987" y="80" width="180" height="50" as="geometry" />
        </mxCell>
        <mxCell id="FYOFQFYo751wViRwcOWy-40" style="edgeStyle=none;rounded=0;orthogonalLoop=1;jettySize=auto;html=1;exitX=0.5;exitY=1;exitDx=0;exitDy=0;entryX=1;entryY=0.5;entryDx=0;entryDy=0;dashed=1;" parent="FYOFQFYo751wViRwcOWy-70" source="FYOFQFYo751wViRwcOWy-8" target="FYOFQFYo751wViRwcOWy-9" edge="1">
          <mxGeometry relative="1" as="geometry" />
        </mxCell>
        <mxCell id="FYOFQFYo751wViRwcOWy-50" value="&amp;lt;&amp;lt;include&amp;gt;&amp;gt;" style="edgeLabel;html=1;align=center;verticalAlign=middle;resizable=0;points=[];" parent="FYOFQFYo751wViRwcOWy-40" vertex="1" connectable="0">
          <mxGeometry x="-0.0363" y="-2" relative="1" as="geometry">
            <mxPoint as="offset" />
          </mxGeometry>
        </mxCell>
        <mxCell id="FYOFQFYo751wViRwcOWy-8" value="Lưu JWT vào localStorage" style="ellipse;whiteSpace=wrap;html=1;" parent="FYOFQFYo751wViRwcOWy-70" vertex="1">
          <mxGeometry x="997" y="340" width="160" height="50" as="geometry" />
        </mxCell>
        <mxCell id="FYOFQFYo751wViRwcOWy-41" style="edgeStyle=none;rounded=0;orthogonalLoop=1;jettySize=auto;html=1;entryX=0.5;entryY=0;entryDx=0;entryDy=0;dashed=1;" parent="FYOFQFYo751wViRwcOWy-70" source="FYOFQFYo751wViRwcOWy-9" target="FYOFQFYo751wViRwcOWy-10" edge="1">
          <mxGeometry relative="1" as="geometry" />
        </mxCell>
        <mxCell id="FYOFQFYo751wViRwcOWy-51" value="&amp;lt;&amp;lt;include&amp;gt;&amp;gt;" style="edgeLabel;html=1;align=center;verticalAlign=middle;resizable=0;points=[];" parent="FYOFQFYo751wViRwcOWy-41" vertex="1" connectable="0">
          <mxGeometry x="-0.0391" y="2" relative="1" as="geometry">
            <mxPoint as="offset" />
          </mxGeometry>
        </mxCell>
        <mxCell id="FYOFQFYo751wViRwcOWy-9" value="Gửi yêu cầu với JWT" style="ellipse;whiteSpace=wrap;html=1;" parent="FYOFQFYo751wViRwcOWy-70" vertex="1">
          <mxGeometry x="660" y="420" width="160" height="50" as="geometry" />
        </mxCell>
        <mxCell id="FYOFQFYo751wViRwcOWy-66" style="edgeStyle=none;rounded=0;orthogonalLoop=1;jettySize=auto;html=1;entryX=1;entryY=0.5;entryDx=0;entryDy=0;dashed=1;" parent="FYOFQFYo751wViRwcOWy-70" source="FYOFQFYo751wViRwcOWy-10" target="FYOFQFYo751wViRwcOWy-11" edge="1">
          <mxGeometry relative="1" as="geometry" />
        </mxCell>
        <mxCell id="FYOFQFYo751wViRwcOWy-68" value="&amp;lt;&amp;lt;extend&amp;gt;&amp;gt;" style="edgeLabel;html=1;align=center;verticalAlign=middle;resizable=0;points=[];" parent="FYOFQFYo751wViRwcOWy-66" vertex="1" connectable="0">
          <mxGeometry x="0.0221" y="-3" relative="1" as="geometry">
            <mxPoint x="1" as="offset" />
          </mxGeometry>
        </mxCell>
        <mxCell id="FYOFQFYo751wViRwcOWy-67" style="edgeStyle=none;rounded=0;orthogonalLoop=1;jettySize=auto;html=1;entryX=1;entryY=0.5;entryDx=0;entryDy=0;dashed=1;" parent="FYOFQFYo751wViRwcOWy-70" source="FYOFQFYo751wViRwcOWy-10" target="FYOFQFYo751wViRwcOWy-12" edge="1">
          <mxGeometry relative="1" as="geometry" />
        </mxCell>
        <mxCell id="FYOFQFYo751wViRwcOWy-69" value="&amp;lt;&amp;lt;extend&amp;gt;&amp;gt;" style="edgeLabel;html=1;align=center;verticalAlign=middle;resizable=0;points=[];" parent="FYOFQFYo751wViRwcOWy-67" vertex="1" connectable="0">
          <mxGeometry x="-0.0101" relative="1" as="geometry">
            <mxPoint as="offset" />
          </mxGeometry>
        </mxCell>
        <mxCell id="FYOFQFYo751wViRwcOWy-10" value="Xác thực JWT" style="ellipse;whiteSpace=wrap;html=1;" parent="FYOFQFYo751wViRwcOWy-70" vertex="1">
          <mxGeometry x="997" y="480" width="160" height="50" as="geometry" />
        </mxCell>
        <mxCell id="FYOFQFYo751wViRwcOWy-11" value="Cho phép truy cập dịch vụ" style="ellipse;whiteSpace=wrap;html=1;" parent="FYOFQFYo751wViRwcOWy-70" vertex="1">
          <mxGeometry x="490" y="540" width="160" height="50" as="geometry" />
        </mxCell>
        <mxCell id="FYOFQFYo751wViRwcOWy-12" value="Thông báo lỗi nếu JWT không hợp lệ" style="ellipse;whiteSpace=wrap;html=1;" parent="FYOFQFYo751wViRwcOWy-70" vertex="1">
          <mxGeometry x="490" y="610" width="160" height="50" as="geometry" />
        </mxCell>
        <mxCell id="FYOFQFYo751wViRwcOWy-19" style="edgeStyle=none;rounded=0;orthogonalLoop=1;jettySize=auto;html=1;entryX=0;entryY=0.5;entryDx=0;entryDy=0;dashed=1;" parent="FYOFQFYo751wViRwcOWy-70" source="FYOFQFYo751wViRwcOWy-15" target="FYOFQFYo751wViRwcOWy-3" edge="1">
          <mxGeometry relative="1" as="geometry" />
        </mxCell>
        <mxCell id="FYOFQFYo751wViRwcOWy-23" value="&amp;lt;&amp;lt;include&amp;gt;&amp;gt;" style="edgeLabel;html=1;align=center;verticalAlign=middle;resizable=0;points=[];" parent="FYOFQFYo751wViRwcOWy-19" vertex="1" connectable="0">
          <mxGeometry x="0.0366" y="1" relative="1" as="geometry">
            <mxPoint as="offset" />
          </mxGeometry>
        </mxCell>
        <mxCell id="FYOFQFYo751wViRwcOWy-24" style="edgeStyle=none;rounded=0;orthogonalLoop=1;jettySize=auto;html=1;entryX=0;entryY=0.5;entryDx=0;entryDy=0;dashed=1;" parent="FYOFQFYo751wViRwcOWy-70" source="FYOFQFYo751wViRwcOWy-15" target="FYOFQFYo751wViRwcOWy-4" edge="1">
          <mxGeometry relative="1" as="geometry" />
        </mxCell>
        <mxCell id="FYOFQFYo751wViRwcOWy-26" value="&amp;lt;&amp;lt;include&amp;gt;&amp;gt;" style="edgeLabel;html=1;align=center;verticalAlign=middle;resizable=0;points=[];" parent="FYOFQFYo751wViRwcOWy-24" vertex="1" connectable="0">
          <mxGeometry x="-0.0363" y="1" relative="1" as="geometry">
            <mxPoint as="offset" />
          </mxGeometry>
        </mxCell>
        <mxCell id="FYOFQFYo751wViRwcOWy-15" value="1. Đăng nhập" style="ellipse;whiteSpace=wrap;html=1;" parent="FYOFQFYo751wViRwcOWy-70" vertex="1">
          <mxGeometry x="410" y="110" width="160" height="50" as="geometry" />
        </mxCell>
        <mxCell id="FYOFQFYo751wViRwcOWy-29" value="Client" style="shape=umlActor;verticalLabelPosition=bottom;verticalAlign=top;html=1;outlineConnect=0;" parent="FYOFQFYo751wViRwcOWy-70" vertex="1">
          <mxGeometry y="227.5" width="30" height="60" as="geometry" />
        </mxCell>
        <mxCell id="FYOFQFYo751wViRwcOWy-34" style="edgeStyle=none;rounded=0;orthogonalLoop=1;jettySize=auto;html=1;endArrow=block;endFill=0;" parent="FYOFQFYo751wViRwcOWy-70" source="FYOFQFYo751wViRwcOWy-30" target="FYOFQFYo751wViRwcOWy-29" edge="1">
          <mxGeometry relative="1" as="geometry">
            <mxPoint x="180" y="317.5" as="sourcePoint" />
          </mxGeometry>
        </mxCell>
        <mxCell id="FYOFQFYo751wViRwcOWy-44" style="edgeStyle=none;rounded=0;orthogonalLoop=1;jettySize=auto;html=1;entryX=0;entryY=0.5;entryDx=0;entryDy=0;endArrow=none;startFill=0;" parent="FYOFQFYo751wViRwcOWy-70" source="FYOFQFYo751wViRwcOWy-30" target="FYOFQFYo751wViRwcOWy-15" edge="1">
          <mxGeometry relative="1" as="geometry" />
        </mxCell>
        <mxCell id="FYOFQFYo751wViRwcOWy-30" value="Admin" style="shape=umlActor;verticalLabelPosition=bottom;verticalAlign=top;html=1;outlineConnect=0;" parent="FYOFQFYo751wViRwcOWy-70" vertex="1">
          <mxGeometry x="180" y="287.5" width="30" height="60" as="geometry" />
        </mxCell>
        <mxCell id="FYOFQFYo751wViRwcOWy-35" style="edgeStyle=none;rounded=0;orthogonalLoop=1;jettySize=auto;html=1;exitX=0;exitY=0.5;exitDx=0;exitDy=0;" parent="FYOFQFYo751wViRwcOWy-70" source="FYOFQFYo751wViRwcOWy-27" target="FYOFQFYo751wViRwcOWy-27" edge="1">
          <mxGeometry relative="1" as="geometry" />
        </mxCell>
        <mxCell id="FYOFQFYo751wViRwcOWy-39" style="edgeStyle=none;rounded=0;orthogonalLoop=1;jettySize=auto;html=1;exitX=0.5;exitY=1;exitDx=0;exitDy=0;entryX=0.5;entryY=0;entryDx=0;entryDy=0;dashed=1;" parent="FYOFQFYo751wViRwcOWy-70" source="FYOFQFYo751wViRwcOWy-37" target="FYOFQFYo751wViRwcOWy-8" edge="1">
          <mxGeometry relative="1" as="geometry" />
        </mxCell>
        <mxCell id="FYOFQFYo751wViRwcOWy-49" value="&amp;lt;&amp;lt;include&amp;gt;&amp;gt;" style="edgeLabel;html=1;align=center;verticalAlign=middle;resizable=0;points=[];" parent="FYOFQFYo751wViRwcOWy-39" vertex="1" connectable="0">
          <mxGeometry x="-0.0512" y="-3" relative="1" as="geometry">
            <mxPoint as="offset" />
          </mxGeometry>
        </mxCell>
        <mxCell id="FYOFQFYo751wViRwcOWy-37" value="Nhận JWT" style="ellipse;whiteSpace=wrap;html=1;" parent="FYOFQFYo751wViRwcOWy-70" vertex="1">
          <mxGeometry x="997" y="250" width="160" height="50" as="geometry" />
        </mxCell>
        <mxCell id="FYOFQFYo751wViRwcOWy-38" style="edgeStyle=none;rounded=0;orthogonalLoop=1;jettySize=auto;html=1;exitX=0.5;exitY=1;exitDx=0;exitDy=0;entryX=0.5;entryY=0;entryDx=0;entryDy=0;dashed=1;" parent="FYOFQFYo751wViRwcOWy-70" source="FYOFQFYo751wViRwcOWy-6" target="FYOFQFYo751wViRwcOWy-37" edge="1">
          <mxGeometry relative="1" as="geometry" />
        </mxCell>
        <mxCell id="FYOFQFYo751wViRwcOWy-48" value="&amp;lt;&amp;lt;include&amp;gt;&amp;gt;" style="edgeLabel;html=1;align=center;verticalAlign=middle;resizable=0;points=[];" parent="FYOFQFYo751wViRwcOWy-38" vertex="1" connectable="0">
          <mxGeometry x="0.0026" y="-2" relative="1" as="geometry">
            <mxPoint as="offset" />
          </mxGeometry>
        </mxCell>
        <mxCell id="FYOFQFYo751wViRwcOWy-63" style="edgeStyle=none;rounded=0;orthogonalLoop=1;jettySize=auto;html=1;endArrow=none;startFill=0;dashed=1;" parent="FYOFQFYo751wViRwcOWy-70" source="FYOFQFYo751wViRwcOWy-54" target="FYOFQFYo751wViRwcOWy-11" edge="1">
          <mxGeometry relative="1" as="geometry">
            <mxPoint x="780" y="570" as="targetPoint" />
          </mxGeometry>
        </mxCell>
        <mxCell id="FYOFQFYo751wViRwcOWy-54" value="&lt;div style=&quot;&quot;&gt;&lt;span style=&quot;background-color: transparent; color: light-dark(rgb(0, 0, 0), rgb(255, 255, 255));&quot;&gt;&lt;b&gt;Condition&lt;/b&gt;: Token hợp lệ&lt;/span&gt;&lt;/div&gt;&lt;div style=&quot;&quot;&gt;&lt;span style=&quot;background-color: transparent; color: light-dark(rgb(0, 0, 0), rgb(255, 255, 255));&quot;&gt;&lt;b&gt;Extension Point&lt;/b&gt;: Xác thực JWT&lt;/span&gt;&lt;/div&gt;" style="shape=note;whiteSpace=wrap;html=1;backgroundOutline=1;darkOpacity=0.05;align=left;" parent="FYOFQFYo751wViRwcOWy-70" vertex="1">
          <mxGeometry x="440" y="450" width="213" height="50" as="geometry" />
        </mxCell>
        <mxCell id="FYOFQFYo751wViRwcOWy-64" style="edgeStyle=none;rounded=0;orthogonalLoop=1;jettySize=auto;html=1;endArrow=none;startFill=0;dashed=1;entryX=0.5;entryY=1;entryDx=0;entryDy=0;" parent="FYOFQFYo751wViRwcOWy-70" source="FYOFQFYo751wViRwcOWy-57" target="FYOFQFYo751wViRwcOWy-12" edge="1">
          <mxGeometry relative="1" as="geometry">
            <mxPoint x="790" y="620" as="targetPoint" />
          </mxGeometry>
        </mxCell>
        <mxCell id="FYOFQFYo751wViRwcOWy-57" value="&lt;div style=&quot;&quot;&gt;&lt;span style=&quot;background-color: transparent; color: light-dark(rgb(0, 0, 0), rgb(255, 255, 255));&quot;&gt;&lt;b&gt;Condition&lt;/b&gt;: Token không hợp lệ&lt;/span&gt;&lt;/div&gt;&lt;div style=&quot;&quot;&gt;&lt;span style=&quot;background-color: transparent; color: light-dark(rgb(0, 0, 0), rgb(255, 255, 255));&quot;&gt;&lt;b&gt;Extension Point&lt;/b&gt;: Xác thực JWT&lt;/span&gt;&lt;/div&gt;" style="shape=note;whiteSpace=wrap;html=1;backgroundOutline=1;darkOpacity=0.05;align=left;" parent="FYOFQFYo751wViRwcOWy-70" vertex="1">
          <mxGeometry x="443" y="720" width="210" height="50" as="geometry" />
        </mxCell>
        <mxCell id="FYOFQFYo751wViRwcOWy-72" value="&lt;h1 style=&quot;margin-top: 0px;&quot;&gt;Chức năng đăng nhập dành cho Staff / Admin&lt;/h1&gt;" style="text;html=1;whiteSpace=wrap;overflow=hidden;rounded=0;" parent="1" vertex="1">
          <mxGeometry x="-800" y="10" width="540" height="40" as="geometry" />
        </mxCell>
        <mxCell id="jMvjwCM3jkftyoJlGopW-1" value="&lt;h1 style=&quot;margin-top: 0px;&quot;&gt;Chức năng tìm kiếm sản phẩm dành cho User&lt;/h1&gt;" style="text;html=1;whiteSpace=wrap;overflow=hidden;rounded=0;" vertex="1" parent="1">
          <mxGeometry x="-790" y="1200" width="560" height="40" as="geometry" />
        </mxCell>
        <mxCell id="jMvjwCM3jkftyoJlGopW-49" value="USER" style="shape=umlActor;verticalLabelPosition=bottom;verticalAlign=top;html=1;outlineConnect=0;" vertex="1" parent="1">
          <mxGeometry x="-630" y="1470" width="30" height="60" as="geometry" />
        </mxCell>
        <mxCell id="jMvjwCM3jkftyoJlGopW-50" value="&lt;font style=&quot;font-size: 24px;&quot;&gt;&amp;lt;&amp;lt;System&amp;gt;&amp;gt;&lt;/font&gt;&lt;div&gt;&lt;font style=&quot;font-size: 24px;&quot;&gt;Website bán hàng Online&lt;/font&gt;&lt;/div&gt;" style="rounded=0;whiteSpace=wrap;html=1;align=center;verticalAlign=top;" vertex="1" parent="1">
          <mxGeometry x="-470" y="1300" width="940" height="920" as="geometry" />
        </mxCell>
        <mxCell id="jMvjwCM3jkftyoJlGopW-51" value="Tìm kiếm sản phẩm" style="ellipse;whiteSpace=wrap;html=1;" vertex="1" parent="1">
          <mxGeometry x="-420" y="1440" width="160" height="80" as="geometry" />
        </mxCell>
        <mxCell id="jMvjwCM3jkftyoJlGopW-52" style="rounded=0;orthogonalLoop=1;jettySize=auto;html=1;" edge="1" parent="1" source="jMvjwCM3jkftyoJlGopW-49" target="jMvjwCM3jkftyoJlGopW-51">
          <mxGeometry relative="1" as="geometry" />
        </mxCell>
        <mxCell id="jMvjwCM3jkftyoJlGopW-53" value="" style="endArrow=none;endSize=16;endFill=0;html=1;rounded=0;exitX=1;exitY=0;exitDx=0;exitDy=0;entryX=0;entryY=0.5;entryDx=0;entryDy=0;startArrow=block;startFill=0;" edge="1" parent="1" source="jMvjwCM3jkftyoJlGopW-51" target="jMvjwCM3jkftyoJlGopW-54">
          <mxGeometry width="160" relative="1" as="geometry">
            <mxPoint x="-200" y="1510" as="sourcePoint" />
            <mxPoint x="-70" y="1510" as="targetPoint" />
          </mxGeometry>
        </mxCell>
        <mxCell id="jMvjwCM3jkftyoJlGopW-115" value="&lt;span style=&quot;color: rgb(69, 79, 89); text-align: left; text-wrap-mode: wrap; background-color: rgb(247, 248, 249);&quot;&gt;&lt;font face=&quot;Helvetica&quot;&gt;Generalization&lt;/font&gt;&lt;/span&gt;" style="edgeLabel;html=1;align=center;verticalAlign=middle;resizable=0;points=[];fontSize=11;" vertex="1" connectable="0" parent="jMvjwCM3jkftyoJlGopW-53">
          <mxGeometry x="0.0001" y="1" relative="1" as="geometry">
            <mxPoint as="offset" />
          </mxGeometry>
        </mxCell>
        <mxCell id="jMvjwCM3jkftyoJlGopW-54" value="Nhập từ khoá tìm kiếm" style="ellipse;whiteSpace=wrap;html=1;" vertex="1" parent="1">
          <mxGeometry x="-155" y="1380" width="90" height="80" as="geometry" />
        </mxCell>
        <mxCell id="jMvjwCM3jkftyoJlGopW-56" value="Chọn danh mục sản phẩm" style="ellipse;whiteSpace=wrap;html=1;" vertex="1" parent="1">
          <mxGeometry x="-155" y="1520" width="90" height="80" as="geometry" />
        </mxCell>
        <mxCell id="jMvjwCM3jkftyoJlGopW-58" value="" style="endArrow=none;endSize=16;endFill=0;html=1;rounded=0;exitX=1;exitY=1;exitDx=0;exitDy=0;entryX=0;entryY=0.5;entryDx=0;entryDy=0;startArrow=block;startFill=0;" edge="1" parent="1" source="jMvjwCM3jkftyoJlGopW-51" target="jMvjwCM3jkftyoJlGopW-56">
          <mxGeometry width="160" relative="1" as="geometry">
            <mxPoint x="-240" y="1540" as="sourcePoint" />
            <mxPoint x="-80" y="1540" as="targetPoint" />
          </mxGeometry>
        </mxCell>
        <mxCell id="jMvjwCM3jkftyoJlGopW-116" value="&lt;span style=&quot;color: rgba(0, 0, 0, 0); font-family: monospace; font-size: 0px; text-align: start; background-color: rgb(236, 236, 236);&quot;&gt;%3CmxGraphModel%3E%3Croot%3E%3CmxCell%20id%3D%220%22%2F%3E%3CmxCell%20id%3D%221%22%20parent%3D%220%22%2F%3E%3CmxCell%20id%3D%222%22%20value%3D%22%26lt%3Bspan%20style%3D%26quot%3Bcolor%3A%20rgb(69%2C%2079%2C%2089)%3B%20text-align%3A%20left%3B%20text-wrap-mode%3A%20wrap%3B%20background-color%3A%20rgb(247%2C%20248%2C%20249)%3B%26quot%3B%26gt%3B%26lt%3Bfont%20face%3D%26quot%3BHelvetica%26quot%3B%26gt%3BGeneralization%26lt%3B%2Ffont%26gt%3B%26lt%3B%2Fspan%26gt%3B%22%20style%3D%22edgeLabel%3Bhtml%3D1%3Balign%3Dcenter%3BverticalAlign%3Dmiddle%3Bresizable%3D0%3Bpoints%3D%5B%5D%3BfontSize%3D11%3B%22%20vertex%3D%221%22%20connectable%3D%220%22%20parent%3D%221%22%3E%3CmxGeometry%20x%3D%22-219.3951667796939%22%20y%3D%221434.8721358714147%22%20as%3D%22geometry%22%2F%3E%3C%2FmxCell%3E%3C%2Froot%3E%3C%2FmxGraphModel%3E&lt;/span&gt;" style="edgeLabel;html=1;align=center;verticalAlign=middle;resizable=0;points=[];" vertex="1" connectable="0" parent="jMvjwCM3jkftyoJlGopW-58">
          <mxGeometry x="0.0095" y="2" relative="1" as="geometry">
            <mxPoint y="1" as="offset" />
          </mxGeometry>
        </mxCell>
        <mxCell id="jMvjwCM3jkftyoJlGopW-117" value="&lt;span style=&quot;color: rgb(69, 79, 89); text-align: left; text-wrap-mode: wrap; background-color: rgb(247, 248, 249);&quot;&gt;Generalization&lt;/span&gt;" style="edgeLabel;html=1;align=center;verticalAlign=middle;resizable=0;points=[];" vertex="1" connectable="0" parent="jMvjwCM3jkftyoJlGopW-58">
          <mxGeometry x="-0.009" y="1" relative="1" as="geometry">
            <mxPoint as="offset" />
          </mxGeometry>
        </mxCell>
        <mxCell id="jMvjwCM3jkftyoJlGopW-59" value="Hiển thị kết quả sản phẩm" style="ellipse;whiteSpace=wrap;html=1;" vertex="1" parent="1">
          <mxGeometry x="150" y="1440" width="160" height="80" as="geometry" />
        </mxCell>
        <mxCell id="jMvjwCM3jkftyoJlGopW-62" value="&amp;lt;&amp;lt;Include&amp;gt;&amp;gt;" style="endArrow=open;endSize=12;dashed=1;html=1;rounded=0;exitX=1;exitY=0.5;exitDx=0;exitDy=0;entryX=0;entryY=1;entryDx=0;entryDy=0;" edge="1" parent="1" source="jMvjwCM3jkftyoJlGopW-56" target="jMvjwCM3jkftyoJlGopW-59">
          <mxGeometry width="160" relative="1" as="geometry">
            <mxPoint x="-170" y="1680" as="sourcePoint" />
            <mxPoint x="-10" y="1680" as="targetPoint" />
          </mxGeometry>
        </mxCell>
        <mxCell id="jMvjwCM3jkftyoJlGopW-63" value="&amp;lt;&amp;lt;Include&amp;gt;&amp;gt;" style="endArrow=open;endSize=12;dashed=1;html=1;rounded=0;exitX=1;exitY=0.5;exitDx=0;exitDy=0;entryX=0;entryY=0;entryDx=0;entryDy=0;" edge="1" parent="1" source="jMvjwCM3jkftyoJlGopW-54" target="jMvjwCM3jkftyoJlGopW-59">
          <mxGeometry width="160" relative="1" as="geometry">
            <mxPoint x="-40" y="1540" as="sourcePoint" />
            <mxPoint x="100" y="1490" as="targetPoint" />
          </mxGeometry>
        </mxCell>
        <mxCell id="jMvjwCM3jkftyoJlGopW-114" value="Chọn sản phẩm&lt;div&gt;-----------------------&lt;br&gt;&lt;div&gt;extendtion point&lt;/div&gt;&lt;/div&gt;&lt;div&gt;Tìm thấy sản phẩm&lt;/div&gt;" style="ellipse;whiteSpace=wrap;html=1;verticalAlign=top;spacingTop=14;" vertex="1" parent="1">
          <mxGeometry x="-20" y="1650" width="150" height="110" as="geometry" />
        </mxCell>
        <mxCell id="jMvjwCM3jkftyoJlGopW-118" value="&amp;lt;&amp;lt;Extend&amp;gt;&amp;gt;" style="endArrow=none;endSize=12;dashed=1;html=1;rounded=0;exitX=0.5;exitY=1;exitDx=0;exitDy=0;entryX=0.5;entryY=0;entryDx=0;entryDy=0;startFill=0;startArrow=open;" edge="1" parent="1" source="jMvjwCM3jkftyoJlGopW-59" target="jMvjwCM3jkftyoJlGopW-114">
          <mxGeometry width="160" relative="1" as="geometry">
            <mxPoint x="-90" y="1620" as="sourcePoint" />
            <mxPoint x="70" y="1620" as="targetPoint" />
          </mxGeometry>
        </mxCell>
        <mxCell id="jMvjwCM3jkftyoJlGopW-119" value="Thoát web&lt;div&gt;------------------------------&lt;/div&gt;&lt;div&gt;extension point&lt;/div&gt;&lt;div&gt;Không ưng sản phẩm nào&lt;/div&gt;" style="ellipse;whiteSpace=wrap;html=1;" vertex="1" parent="1">
          <mxGeometry x="280" y="1644" width="170" height="110" as="geometry" />
        </mxCell>
        <mxCell id="jMvjwCM3jkftyoJlGopW-120" value="&amp;lt;&amp;lt;Extend&amp;gt;&amp;gt;" style="endArrow=none;endSize=12;dashed=1;html=1;rounded=0;exitX=0.5;exitY=1;exitDx=0;exitDy=0;entryX=0.5;entryY=0;entryDx=0;entryDy=0;startFill=0;startArrow=open;" edge="1" parent="1" source="jMvjwCM3jkftyoJlGopW-59" target="jMvjwCM3jkftyoJlGopW-119">
          <mxGeometry width="160" relative="1" as="geometry">
            <mxPoint x="140" y="1530" as="sourcePoint" />
            <mxPoint x="-40" y="1670" as="targetPoint" />
          </mxGeometry>
        </mxCell>
      </root>
    </mxGraphModel>
  </diagram>
</mxfile>
